<?xml version="1.0" standalone="no"?>
<!DOCTYPE svg PUBLIC "-//W3C//DTD SVG 1.1//EN" "http://www.w3.org/Graphics/SVG/1.1/DTD/svg11.dtd">
<svg xmlns="http://www.w3.org/2000/svg" xmlns:xlink="http://www.w3.org/1999/xlink" xmlns:serif="http://www.serif.com/" width="596" height="596" viewBox="0 0 596 596" version="1.1" xml:space="preserve" style="fill-rule:evenodd;clip-rule:evenodd;stroke-linejoin:round;stroke-miterlimit:2;">
    <g transform="matrix(1,0,0,1,-4353.36,-1568.61)">
        <g id="Image-references" serif:id="Image references">
        </g>
        <g id="Color-swatches" serif:id="Color swatches">
        </g>
        <g id="Purple---stacked" serif:id="Purple - stacked" transform="matrix(1,0,0,1,4353.36,1568.61)">
            <rect x="0" y="0" width="595.276" height="595.276" style="fill:none;"/>
            <g id="Layer-1" serif:id="Layer 1">
            </g>
            <g transform="matrix(1,0,0,1,1256.4,777.011)">
                <g transform="matrix(1,0,0,1,-848.728,1)">
                    <text x="-341.849px" y="-267.961px" style="font-family:'Ubuntu-Bold', 'Ubuntu', sans-serif;font-weight:700;font-size:86.692px;fill:rgb(131,72,201);">T<tspan x="-300.236px -254.723px -216.492px -170.545px -126.852px -81.339px -38.513px 8.734px 28.674px 74.62px " y="-267.961px -267.961px -267.961px -267.961px -267.961px -267.961px -267.961px -267.961px -267.961px -267.961px ">echLeading</tspan></text>
                </g>
                <g transform="matrix(0.569403,0,0,0.569403,-842.59,-63.1472)">
                    <text x="-339.985px" y="-267.961px" style="font-family:'Ubuntu-Regular', 'Ubuntu', sans-serif;font-size:86.692px;fill:rgb(131,72,201);">L<tspan x="-298.372px -256.5px -208.819px -190.267px -145.187px " y="-267.961px -267.961px -267.961px -267.961px -267.961px ">adies</tspan></text>
                </g>
                <g transform="matrix(0.732224,0,0,0.732224,-1159.23,-763.229)">
                    <path d="M333.167,525.562C388.52,497.471 406.143,452.169 407.06,450.562C407.977,448.955 408.736,448.108 408.736,448.108C408.736,448.108 448.158,423.356 490.274,427.622C527.022,431.344 566.817,458.303 572.634,526.825C572.665,527.183 572.644,528.842 572.402,529.188C572.124,529.584 571.61,528.623 571.479,528.246C568.449,519.572 565.587,512.293 559.378,504.534C542.814,483.837 518.181,488.92 499.532,503.159C469.716,525.924 440.924,568.427 405.788,568.427C405.788,568.427 362.067,571.604 331.493,532.11C330.991,531.46 329.495,529.5 329.381,529.225C328.727,527.644 330.865,526.73 333.167,525.562ZM451.654,459.379C451.244,459.467 449.149,459.862 448.734,459.508C448.331,459.165 449.588,458.083 450.398,457.6C452.481,456.359 455.859,454.582 460.475,452.894C475.4,447.437 501.854,443.762 529.302,468.189C529.302,470.271 527.023,469.836 527.023,469.836C527.023,469.836 503.509,472.769 487.914,485.462C462.435,506.202 440.697,534.685 418.514,534.685C397.662,534.685 393.78,529.713 393.06,527.975C392.907,527.608 393.008,527.5 393.245,527.523C395.67,527.749 410.446,524.888 428.746,500.608C450.406,471.871 474.398,463.744 489.284,469.348C489.284,465.888 470.354,455.356 451.654,459.379ZM257.674,516.567C256.016,516.507 242.488,515.871 234.205,511.119C226.196,506.524 216.838,497.986 213.438,492.512C212.511,491.019 211.504,490.017 211.99,489.321C212.545,488.524 214.42,489.733 215.634,489.965C232.504,493.185 249.473,491.8 253.23,491.231C253.916,491.127 253.649,490.848 253.202,490.844C227.827,490.627 211.062,484.309 202.759,479.61C198.669,477.295 197.207,474.792 197.212,474.185C197.225,472.675 201.055,473.899 207.318,472.79C211.613,472.029 217.248,469.885 222.8,466.152C233.495,458.961 238.872,458.461 243.183,458.461C253.852,458.461 257.842,465.063 257.842,465.063L257.854,465.044C258.098,464.658 262.166,458.461 272.502,458.461C276.813,458.461 282.19,458.961 292.885,466.152C298.437,469.885 304.072,472.029 308.367,472.79C314.63,473.899 318.46,472.675 318.473,474.185C318.475,474.433 318.233,474.996 317.668,475.733C317.585,475.851 317.493,475.976 317.392,476.106C315.201,478.954 310.18,484.762 303.199,492.231C301.699,493.836 300.271,495.546 298.715,497.177C289.523,506.806 279.605,516.641 257.842,516.573L257.674,516.567ZM111.164,428.543C113.06,433.096 118.099,444.047 125.897,452.774C127.305,454.349 125.933,456.074 123.744,455.577C122.268,455.242 106.026,444.319 94.917,433.411C79.187,417.966 30.831,365.613 22.932,270.126C22.446,264.246 21.732,230.381 28.123,196.853C29.96,187.212 37.349,159.733 49.946,136.162C63.096,111.556 81.557,90.911 87.591,84.755C118.333,53.397 144.667,43.907 166.891,36.345C173.944,33.945 187.977,30.609 199.096,28.924C210.774,27.154 219.431,27.089 221.738,26.945C229.897,26.433 231.917,27.124 221.522,29.766C205.646,33.803 182.03,41.004 164.075,51.618C144.318,63.297 132.945,72.35 122.951,82.271C118.689,86.501 102.495,104.096 89.317,125.847C77.109,145.998 67.933,169.893 62.449,185.735C54.071,209.938 51.91,229.704 51.572,238.568C51.46,241.53 52.7,240.119 53.24,238.419C61.056,213.831 73.155,192.231 88.994,173.242C108.274,150.127 133.095,130.879 162.477,114.814C164.455,113.732 171.795,108.203 166.677,116.636C158.146,130.69 146.114,155.097 139.283,175.083C132.746,194.21 128.147,211.398 129.735,216.222C130.268,217.84 140.341,214.047 152.579,208.483C158.834,205.64 185.538,191.921 192.856,187.071C195.953,185.018 199.025,182.829 201.933,180.533C211.635,172.873 219.498,164.004 222.534,160.267C240.049,138.706 252.219,110.436 252.071,78.858C284.196,124.169 282.892,174.447 282.892,174.447C282.892,174.447 292.837,125.253 292.224,106.022C291.801,92.76 291.561,75.129 289.82,65.385C288.378,57.31 287.04,54.129 288.725,52.972C302.406,43.586 350.511,30.174 398.921,56.924C424.4,71.003 443.939,94.186 456.715,115.565C465.381,130.065 474.057,159.112 475.484,166.904C478.922,185.671 484.382,220.157 479.631,249.18C474.215,282.266 457.626,308.975 450.057,319.79C447.702,323.155 445.046,325.207 445.046,325.207C445.062,321.444 445.04,317.957 444.915,316.341C444.724,313.874 443.843,311.827 442.66,310.175C442.451,309.883 439.128,305.326 436.313,303.19C434.544,301.848 432.574,300.9 430.544,300.454C422.018,298.583 413.682,297.499 405.269,296.241C402.505,295.827 399.739,295.431 396.967,295.06C395.821,292.524 394.672,290.019 394.319,289.36C378.165,259.19 355.34,234.231 327.969,216.499C327.174,215.984 325.417,215.524 324.919,214.229C324.354,212.761 325.117,210.403 325.452,208.996C326.881,202.992 327.121,191.383 326.596,178.619C325.826,159.926 323.414,138.756 320.694,129.094C320.164,127.213 318.684,123.442 317.842,123.818C317.257,124.078 317.186,127.751 317.095,129.566C316.225,146.824 311.612,193.185 287.298,233.664C262.91,274.266 241.588,291.826 226.559,299.29C224.701,298.845 222.883,298.434 221.167,298.086C190.836,291.939 160.709,290.562 129.883,293.103C121.165,293.822 112.481,294.946 103.832,296.241C102.428,296.451 101.026,296.656 99.625,296.861C98.963,293.926 98.381,289.163 98.516,281.61C98.74,269.136 99.564,259.274 100.273,252.852C100.872,247.415 100.035,247.057 98.267,251.942C95.094,260.714 90.59,276.814 90.211,298.282C86.349,298.901 82.473,299.595 78.557,300.454C76.528,300.9 74.557,301.848 72.788,303.19C69.973,305.326 66.651,309.883 66.442,310.175C65.258,311.827 64.378,313.874 64.186,316.341C63.899,320.043 64.158,333.555 64.158,337.735C64.158,342.862 65.938,346.191 67.912,348.497C70.669,351.717 74.204,352.895 75.512,353.357L78.193,354.275C79.222,355.623 78.967,357.198 78.967,360.385C78.967,377.299 82.585,402.326 100.537,420.059C103.63,423.114 107.15,425.973 111.164,428.543ZM245.533,313.644C248.489,314.253 251.545,314.458 254.551,314.458C257.556,314.458 260.612,314.253 263.568,313.644C269.44,312.434 280.959,308.986 289.781,307.198C319.244,301.226 348.51,299.9 378.454,302.368C386.967,303.07 395.447,304.171 403.893,305.435C412.1,306.663 420.233,307.709 428.551,309.535C429.311,309.702 430.031,310.093 430.693,310.596C432.68,312.104 434.955,315.383 435.102,315.589C435.385,315.984 435.6,316.471 435.646,317.06C435.924,320.638 435.646,333.695 435.646,337.735C435.646,343.307 431.516,344.23 430.497,344.589C428.651,345.24 426.122,345.748 424.375,347.618C421.665,350.519 420.837,353.389 420.837,360.385C420.837,385.396 412.838,430.725 349.767,432.009C286.71,433.293 266.027,383.804 260.213,358.55C259.839,356.925 257.145,350.576 254.474,350.592C251.854,350.608 249.255,356.956 248.888,358.55C243.075,383.804 222.391,433.293 159.334,432.009C96.263,430.725 88.264,385.396 88.264,360.385C88.264,353.389 87.437,350.519 84.726,347.618C82.979,345.748 80.45,345.24 78.604,344.589C77.586,344.23 73.455,343.307 73.455,337.735C73.455,333.695 73.177,320.638 73.455,317.06C73.501,316.471 73.716,315.984 73.999,315.589C74.146,315.383 76.421,312.104 78.408,310.596C79.07,310.093 79.79,309.702 80.55,309.535C88.868,307.709 97.002,306.663 105.208,305.435C113.654,304.171 122.134,303.07 130.647,302.368C160.591,299.9 189.857,301.226 219.321,307.198C228.142,308.986 239.661,312.434 245.533,313.644ZM339.754,412.123C320.066,410.963 307.197,402.945 298.903,392.482C288.063,378.807 285.037,360.956 284.81,348.782C284.768,346.516 284.814,338.526 285.984,336.67C287.258,334.647 293.963,330.194 295.653,329.233C305.766,323.483 318.298,321.28 332.102,320.942L363.147,320.942C377.841,321.36 393.238,326.765 396.178,335.277C397.21,338.266 398.026,347.424 397.994,358.209C397.964,368.663 397.165,380.642 393.326,390.161C390.736,396.583 383.783,404.179 379.456,406.316C367.342,412.297 354.518,412.993 339.754,412.123ZM169.347,412.123C189.035,410.963 201.904,402.945 210.198,392.482C221.038,378.807 224.064,360.956 224.291,348.782C224.333,346.516 224.287,338.526 223.117,336.67C221.843,334.647 215.138,330.194 213.448,329.233C203.335,323.483 190.803,321.28 176.999,320.942L145.954,320.942C131.26,321.36 115.863,326.765 112.924,335.277C111.891,338.266 111.076,347.424 111.107,358.209C111.137,368.663 111.936,380.642 115.776,390.161C118.366,396.583 125.318,404.179 129.645,406.316C141.759,412.297 154.583,412.993 169.347,412.123ZM435.769,194.136C441.057,212.785 440.941,242.962 439.524,265.013C439.049,272.396 437.474,280.471 435.769,287.129C433.49,296.03 437.002,292.602 439.633,285.889C444.067,274.576 450.956,253.415 453.428,237.645C456.439,218.435 455.406,178.892 443.522,150.597C435.715,132.008 424.426,111.871 409.856,97.302C409.856,97.302 391.838,79.164 371.973,70.992C356.269,64.533 339.309,64.773 333.584,65.153C332.977,65.194 330.115,64.906 330.639,66.215C331.197,67.609 337.288,72.872 341.972,78.109C360.819,99.183 372.464,125.62 377.152,153.51C378,158.558 379.2,179.762 379.946,179.762C381.271,179.762 386.382,163.644 387.852,147.746C389.499,129.931 387.437,112.118 387.437,112.118C388.529,112.118 421.509,143.839 435.769,194.136Z" style="fill:rgb(131,72,201);"/>
                </g>
            </g>
        </g>
    </g>
</svg>