<?xml version="1.0" standalone="no"?>
<!DOCTYPE svg PUBLIC "-//W3C//DTD SVG 1.1//EN" "http://www.w3.org/Graphics/SVG/1.1/DTD/svg11.dtd">
<svg xmlns="http://www.w3.org/2000/svg" width="162" height="62" viewBox="0 0 162 62" fill="none">
<path fill-rule="evenodd" clip-rule="evenodd" d="M40.1464 20.9956C39.8488 22.1139 39.9207 23.2985 40.3514 24.3725C40.7821 25.4466 41.5484 26.3527 42.5361 26.9557L39.7366 33.5221C39.6092 33.8216 39.3772 34.0644 39.0839 34.2052L32.0276 37.5794L32.1123 40.6921L33.2691 39.9534L40.2296 36.6183C41.1093 36.1968 41.8056 35.4697 42.1887 34.5726L45.111 27.7288C46.1196 27.7689 47.119 27.5232 47.994 27.0201C48.869 26.517 49.5842 25.7769 50.057 24.8852C50.5299 23.9934 50.7412 22.9863 50.6667 21.9797C50.5922 20.9731 50.2348 20.008 49.6358 19.1956C49.0368 18.3832 48.2205 17.7566 47.2809 17.3878C46.3413 17.019 45.3167 16.9232 44.325 17.1113C43.3333 17.2994 42.415 17.7638 41.6757 18.451C40.9364 19.1382 40.4063 20.0203 40.1464 20.9956ZM47.0879 24.3964C47.4863 24.0471 47.7721 23.5874 47.9092 23.0757C48.0931 22.3894 47.9968 21.6582 47.6416 21.0429C47.2864 20.4276 46.7012 19.9786 46.015 19.7947C45.5032 19.6576 44.9622 19.6753 44.4605 19.8456C43.9588 20.0159 43.5188 20.3312 43.1963 20.7515C42.8738 21.1719 42.6831 21.6784 42.6484 22.2071C42.6138 22.7358 42.7367 23.2629 43.0016 23.7218C43.2665 24.1806 43.6616 24.5506 44.1368 24.7849C44.612 25.0193 45.146 25.1075 45.6713 25.0383C46.1966 24.9691 46.6896 24.7458 47.0879 24.3964Z" fill="#3B82F6"/>
<path fill-rule="evenodd" clip-rule="evenodd" d="M11.7391 20.9956C12.0367 22.1139 11.9648 23.2985 11.5341 24.3725C11.1034 25.4466 10.3371 26.3527 9.34936 26.9557L12.1489 33.5221C12.2762 33.8216 12.5083 34.0644 12.8016 34.2052L19.8579 37.5794L19.7732 40.6921L18.6164 39.9534L11.6559 36.6183C10.7762 36.1968 10.0799 35.4697 9.69681 34.5726L6.77445 27.7288C5.76589 27.7689 4.76654 27.5232 3.8915 27.0201C3.01647 26.517 2.30134 25.7769 1.82849 24.8852C1.35564 23.9934 1.1443 22.9863 1.21883 21.9797C1.29335 20.9731 1.65069 20.008 2.2497 19.1956C2.84871 18.3832 3.66502 17.7566 4.6046 17.3878C5.54418 17.019 6.56882 16.9232 7.56049 17.1113C8.55216 17.2994 9.47053 17.7638 10.2098 18.451C10.9491 19.1382 11.4792 20.0203 11.7391 20.9956ZM4.79757 24.3964C4.39922 24.0471 4.1134 23.5874 3.97627 23.0757C3.79238 22.3894 3.88865 21.6582 4.2439 21.0429C4.59914 20.4276 5.18426 19.9786 5.87054 19.7947C6.38232 19.6576 6.92328 19.6753 7.425 19.8456C7.92671 20.0159 8.36666 20.3312 8.6892 20.7515C9.01175 21.1719 9.2024 21.6784 9.23705 22.2071C9.27171 22.7358 9.1488 23.2629 8.88388 23.7218C8.61897 24.1806 8.22393 24.5506 7.74874 24.7849C7.27354 25.0193 6.73952 25.1075 6.21422 25.0383C5.68892 24.9691 5.19592 24.7458 4.79757 24.3964Z" fill="#3B82F6"/>
<path fill-rule="evenodd" clip-rule="evenodd" d="M32.7447 41.389C33.7761 37.5397 31.4918 33.583 27.6424 32.5516C23.7931 31.5202 19.8365 33.8046 18.805 37.6539C17.7736 41.5032 20.058 45.4599 23.9073 46.4913C27.7567 47.5227 31.7133 45.2384 32.7447 41.389ZM29.4405 40.5037C29.9829 38.4793 28.7815 36.3984 26.7571 35.856C24.7327 35.3135 22.6518 36.5149 22.1093 38.5394C21.5669 40.5638 22.7683 42.6447 24.7927 43.1871C26.8172 43.7295 28.898 42.5282 29.4405 40.5037Z" fill="#3B82F6"/>
<path d="M73.1284 26L68.1591 7.48932H71.7867L75.6876 23.2669H74.7434L78.8182 7.48932H82.3216L86.3716 23.2669H85.4274L89.3283 7.48932H92.9559L87.9866 26H84.1105L80.0109 10.6448H81.1041L77.0044 26H73.1284ZM100.045 26.2982C98.7196 26.2982 97.5104 25.9917 96.4171 25.3788C95.3405 24.766 94.4791 23.9295 93.8331 22.8693C93.2037 21.8092 92.8889 20.6 92.8889 19.2417C92.8889 17.8835 93.2037 16.6743 93.8331 15.6141C94.4791 14.554 95.3405 13.7175 96.4171 13.1046C97.4938 12.4918 98.703 12.1853 100.045 12.1853C101.37 12.1853 102.571 12.4918 103.647 13.1046C104.724 13.7175 105.577 14.554 106.207 15.6141C106.853 16.6577 107.176 17.8669 107.176 19.2417C107.176 20.6 106.853 21.8092 106.207 22.8693C105.561 23.9295 104.699 24.766 103.623 25.3788C102.546 25.9917 101.353 26.2982 100.045 26.2982ZM100.045 23.3166C100.774 23.3166 101.411 23.1426 101.958 22.7948C102.521 22.4469 102.96 21.9666 103.275 21.3537C103.606 20.7242 103.772 20.0203 103.772 19.2417C103.772 18.4466 103.606 17.7509 103.275 17.1546C102.96 16.5417 102.521 16.0614 101.958 15.7135C101.411 15.3491 100.774 15.1669 100.045 15.1669C99.2993 15.1669 98.6451 15.3491 98.0819 15.7135C97.5187 16.0614 97.0714 16.5417 96.7402 17.1546C96.4254 17.7509 96.2681 18.4466 96.2681 19.2417C96.2681 20.0203 96.4254 20.7242 96.7402 21.3537C97.0714 21.9666 97.5187 22.4469 98.0819 22.7948C98.6451 23.1426 99.2993 23.3166 100.045 23.3166ZM109.147 26V12.4835H112.203V15.6141L111.855 15.0924C112.104 14.1151 112.601 13.3862 113.346 12.9059C114.092 12.4255 114.969 12.1853 115.98 12.1853C117.09 12.1853 118.067 12.4752 118.912 13.0549C119.757 13.6347 120.303 14.3967 120.552 15.3408L119.632 15.4154C120.046 14.3387 120.668 13.5353 121.496 13.0053C122.324 12.4586 123.277 12.1853 124.353 12.1853C125.314 12.1853 126.167 12.4007 126.912 12.8313C127.674 13.262 128.271 13.8666 128.701 14.6451C129.132 15.4071 129.347 16.2933 129.347 17.3037V26H126.092V18.074C126.092 17.4776 125.985 16.9641 125.769 16.5335C125.554 16.1028 125.256 15.7715 124.875 15.5396C124.494 15.2911 124.03 15.1669 123.484 15.1669C122.97 15.1669 122.515 15.2911 122.117 15.5396C121.719 15.7715 121.413 16.1028 121.198 16.5335C120.982 16.9641 120.875 17.4776 120.875 18.074V26H117.62V18.074C117.62 17.4776 117.512 16.9641 117.297 16.5335C117.081 16.1028 116.775 15.7715 116.377 15.5396C115.996 15.2911 115.541 15.1669 115.011 15.1669C114.497 15.1669 114.042 15.2911 113.644 15.5396C113.247 15.7715 112.94 16.1028 112.725 16.5335C112.51 16.9641 112.402 17.4776 112.402 18.074V26H109.147ZM138.015 26.2982C136.623 26.2982 135.406 25.9834 134.362 25.354C133.319 24.7245 132.507 23.8715 131.927 22.7948C131.347 21.7181 131.058 20.5255 131.058 19.2169C131.058 17.8586 131.347 16.6577 131.927 15.6141C132.523 14.554 133.327 13.7175 134.337 13.1046C135.364 12.4918 136.507 12.1853 137.766 12.1853C138.826 12.1853 139.754 12.3592 140.549 12.7071C141.361 13.0549 142.048 13.5353 142.611 14.1482C143.174 14.7611 143.605 15.4651 143.903 16.2602C144.201 17.0387 144.35 17.8835 144.35 18.7945C144.35 19.0264 144.334 19.2666 144.301 19.5151C144.284 19.7635 144.243 19.9789 144.176 20.1611H133.741V17.6764H142.338L140.797 18.8442C140.946 18.0822 140.905 17.4031 140.673 16.8068C140.458 16.2105 140.093 15.7384 139.58 15.3905C139.083 15.0427 138.478 14.8687 137.766 14.8687C137.087 14.8687 136.482 15.0427 135.952 15.3905C135.422 15.7218 135.016 16.2187 134.735 16.8813C134.47 17.5273 134.37 18.3141 134.437 19.2417C134.37 20.07 134.478 20.8071 134.76 21.4531C135.058 22.0825 135.488 22.5712 136.052 22.919C136.631 23.2669 137.294 23.4408 138.039 23.4408C138.785 23.4408 139.414 23.2834 139.928 22.9687C140.458 22.654 140.872 22.2316 141.17 21.7015L143.804 22.9936C143.539 23.6396 143.125 24.211 142.561 24.708C141.998 25.2049 141.327 25.5942 140.549 25.8758C139.787 26.1574 138.942 26.2982 138.015 26.2982ZM146.321 26V12.4835H149.377V15.1421L149.129 14.67C149.443 13.8583 149.957 13.2454 150.669 12.8313C151.398 12.4007 152.243 12.1853 153.203 12.1853C154.197 12.1853 155.075 12.4007 155.837 12.8313C156.616 13.262 157.22 13.8666 157.651 14.6451C158.082 15.4071 158.297 16.2933 158.297 17.3037V26H155.042V18.074C155.042 17.4776 154.926 16.9641 154.694 16.5335C154.462 16.1028 154.139 15.7715 153.725 15.5396C153.328 15.2911 152.855 15.1669 152.309 15.1669C151.779 15.1669 151.307 15.2911 150.893 15.5396C150.479 15.7715 150.156 16.1028 149.924 16.5335C149.692 16.9641 149.576 17.4776 149.576 18.074V26H146.321ZM78.371 57.2982C77.0458 57.2982 75.8201 57.058 74.6937 56.5776C73.5839 56.0972 72.6066 55.4264 71.7618 54.565C70.9336 53.7037 70.2876 52.6933 69.8238 51.5338C69.36 50.3743 69.1281 49.1071 69.1281 47.7322C69.1281 46.3574 69.3517 45.0902 69.7989 43.9307C70.2627 42.7546 70.9087 41.7442 71.737 40.8994C72.5817 40.0381 73.5673 39.3755 74.6937 38.9117C75.8201 38.4313 77.0458 38.1912 78.371 38.1912C79.6961 38.1912 80.8805 38.4148 81.924 38.862C82.9842 39.3093 83.8786 39.9056 84.6075 40.651C85.3363 41.3798 85.8581 42.1832 86.1728 43.0611L83.1415 44.4773C82.7937 43.5497 82.2056 42.7878 81.3774 42.1915C80.5492 41.5786 79.5471 41.2721 78.371 41.2721C77.2115 41.2721 76.1845 41.5454 75.29 42.0921C74.4121 42.6387 73.7247 43.3924 73.2277 44.3531C72.7474 45.3138 72.5072 46.4402 72.5072 47.7322C72.5072 49.0243 72.7474 50.1589 73.2277 51.1362C73.7247 52.0969 74.4121 52.8506 75.29 53.3973C76.1845 53.9439 77.2115 54.2172 78.371 54.2172C79.5471 54.2172 80.5492 53.919 81.3774 53.3227C82.2056 52.7098 82.7937 51.9396 83.1415 51.012L86.1728 52.4282C85.8581 53.3061 85.3363 54.1178 84.6075 54.8632C83.8786 55.592 82.9842 56.1801 81.924 56.6273C80.8805 57.0745 79.6961 57.2982 78.371 57.2982ZM94.5125 57.2982C93.1874 57.2982 91.9782 56.9917 90.8849 56.3788C89.8082 55.766 88.9469 54.9295 88.3009 53.8693C87.6714 52.8092 87.3567 51.6 87.3567 50.2417C87.3567 48.8835 87.6714 47.6743 88.3009 46.6141C88.9469 45.554 89.8082 44.7175 90.8849 44.1046C91.9616 43.4918 93.1708 43.1853 94.5125 43.1853C95.8377 43.1853 97.0386 43.4918 98.1153 44.1046C99.1919 44.7175 100.045 45.554 100.674 46.6141C101.32 47.6577 101.643 48.8669 101.643 50.2417C101.643 51.6 101.32 52.8092 100.674 53.8693C100.028 54.9295 99.1671 55.766 98.0904 56.3788C97.0137 56.9917 95.8211 57.2982 94.5125 57.2982ZM94.5125 54.3166C95.2413 54.3166 95.8791 54.1426 96.4257 53.7948C96.9889 53.4469 97.4278 52.9666 97.7426 52.3537C98.0738 51.7242 98.2395 51.0203 98.2395 50.2417C98.2395 49.4466 98.0738 48.7509 97.7426 48.1546C97.4278 47.5417 96.9889 47.0614 96.4257 46.7135C95.8791 46.3491 95.2413 46.1669 94.5125 46.1669C93.7671 46.1669 93.1128 46.3491 92.5496 46.7135C91.9864 47.0614 91.5392 47.5417 91.2079 48.1546C90.8932 48.7509 90.7358 49.4466 90.7358 50.2417C90.7358 51.0203 90.8932 51.7242 91.2079 52.3537C91.5392 52.9666 91.9864 53.4469 92.5496 53.7948C93.1128 54.1426 93.7671 54.3166 94.5125 54.3166ZM109.901 57.2982C108.592 57.2982 107.425 56.9917 106.398 56.3788C105.371 55.7494 104.559 54.8963 103.963 53.8196C103.366 52.743 103.068 51.5503 103.068 50.2417C103.068 48.9166 103.366 47.724 103.963 46.6638C104.559 45.6037 105.371 44.7589 106.398 44.1295C107.441 43.5 108.601 43.1853 109.876 43.1853C110.903 43.1853 111.814 43.3924 112.609 43.8065C113.421 44.204 114.059 44.7672 114.523 45.496L114.026 46.1669V38.1912H117.28V57H114.2V54.3911L114.547 55.0371C114.084 55.766 113.438 56.3291 112.609 56.7267C111.781 57.1077 110.878 57.2982 109.901 57.2982ZM110.249 54.3166C110.994 54.3166 111.649 54.1426 112.212 53.7948C112.775 53.4469 113.214 52.9666 113.529 52.3537C113.86 51.7408 114.026 51.0368 114.026 50.2417C114.026 49.4632 113.86 48.7675 113.529 48.1546C113.214 47.5252 112.775 47.0365 112.212 46.6887C111.649 46.3408 110.994 46.1669 110.249 46.1669C109.52 46.1669 108.866 46.3491 108.286 46.7135C107.706 47.0614 107.251 47.5417 106.919 48.1546C106.605 48.7509 106.447 49.4466 106.447 50.2417C106.447 51.0368 106.605 51.7408 106.919 52.3537C107.251 52.9666 107.706 53.4469 108.286 53.7948C108.866 54.1426 109.52 54.3166 110.249 54.3166ZM126.222 57.2982C124.831 57.2982 123.613 56.9834 122.57 56.354C121.526 55.7245 120.714 54.8715 120.135 53.7948C119.555 52.7181 119.265 51.5255 119.265 50.2169C119.265 48.8586 119.555 47.6577 120.135 46.6141C120.731 45.554 121.534 44.7175 122.545 44.1046C123.572 43.4918 124.715 43.1853 125.974 43.1853C127.034 43.1853 127.961 43.3592 128.756 43.7071C129.568 44.0549 130.256 44.5353 130.819 45.1482C131.382 45.7611 131.813 46.4651 132.111 47.2602C132.409 48.0387 132.558 48.8835 132.558 49.7945C132.558 50.0264 132.541 50.2666 132.508 50.5151C132.492 50.7635 132.45 50.9789 132.384 51.1611H121.949V48.6764H130.545L129.005 49.8442C129.154 49.0822 129.113 48.4031 128.881 47.8068C128.665 47.2105 128.301 46.7384 127.787 46.3905C127.291 46.0427 126.686 45.8687 125.974 45.8687C125.295 45.8687 124.69 46.0427 124.16 46.3905C123.63 46.7218 123.224 47.2187 122.942 47.8813C122.677 48.5273 122.578 49.3141 122.644 50.2417C122.578 51.07 122.686 51.8071 122.967 52.4531C123.265 53.0825 123.696 53.5712 124.259 53.919C124.839 54.2669 125.502 54.4408 126.247 54.4408C126.992 54.4408 127.622 54.2834 128.135 53.9687C128.665 53.654 129.079 53.2316 129.378 52.7015L132.011 53.9936C131.746 54.6396 131.332 55.211 130.769 55.708C130.206 56.2049 129.535 56.5942 128.756 56.8758C127.995 57.1574 127.15 57.2982 126.222 57.2982ZM134.528 57V43.4835H137.585V46.4899L137.336 46.0427C137.651 45.0322 138.139 44.3283 138.802 43.9307C139.481 43.5332 140.293 43.3344 141.237 43.3344H142.032V46.2166H140.864C139.937 46.2166 139.191 46.5065 138.628 47.0862C138.065 47.6494 137.783 48.4445 137.783 49.4715V57H134.528ZM148.468 57.2982C147.027 57.2982 145.768 56.9586 144.691 56.2795C143.631 55.5837 142.902 54.6479 142.505 53.4718L144.94 52.304C145.288 53.066 145.768 53.6623 146.381 54.093C147.01 54.5236 147.706 54.739 148.468 54.739C149.064 54.739 149.536 54.6064 149.884 54.3414C150.232 54.0764 150.406 53.7285 150.406 53.2979C150.406 53.0328 150.331 52.8175 150.182 52.6519C150.05 52.4696 149.859 52.3206 149.611 52.2046C149.379 52.0721 149.122 51.9644 148.841 51.8816L146.629 51.2604C145.486 50.9292 144.617 50.4239 144.02 49.7448C143.441 49.0657 143.151 48.2623 143.151 47.3347C143.151 46.5065 143.358 45.7859 143.772 45.173C144.203 44.5436 144.791 44.0549 145.536 43.7071C146.298 43.3592 147.168 43.1853 148.145 43.1853C149.42 43.1853 150.547 43.4918 151.524 44.1046C152.501 44.7175 153.197 45.5789 153.611 46.6887L151.127 47.8565C150.895 47.2436 150.505 46.7549 149.959 46.3905C149.412 46.0261 148.799 45.8439 148.12 45.8439C147.573 45.8439 147.143 45.9681 146.828 46.2166C146.513 46.4651 146.356 46.7881 146.356 47.1856C146.356 47.4341 146.422 47.6494 146.555 47.8316C146.687 48.0138 146.869 48.1629 147.101 48.2789C147.35 48.3948 147.631 48.5025 147.946 48.6019L150.108 49.2479C151.218 49.5792 152.071 50.0761 152.667 50.7387C153.28 51.4012 153.586 52.2129 153.586 53.1736C153.586 53.9853 153.371 54.7058 152.94 55.3353C152.51 55.9482 151.913 56.4285 151.151 56.7764C150.389 57.1242 149.495 57.2982 148.468 57.2982Z" fill="#3B82F6"/>
</svg>