<svg xmlns="http://www.w3.org/2000/svg" id="Layer_1" data-name="Layer 1" viewBox="0 0 5726.57 772.78"><defs><style>.cls-3{fill:#0f0f0f}</style></defs><path d="M89.6 689.18V82.05l247.77-.07c131.65 6.63 247.18 107.76 276.9 235.19 40.97 175.64-83.63 349.25-260.51 370.62-87.91 3.1-176.15.56-264.16 1.39Z" style="fill:#4d549f"/><path d="M906.13 82.05h251.81c266.04 22.09 382.52 352.26 177.01 532.92-123.72 108.76-273.31 65.81-424.08 74.28-1.4.3-4.73-.99-4.73-2.13v-38.46c64.53-45.49 112.68-112.98 130.81-190.49 30.34-129.73-23.09-260.31-130.81-335.59V82.06Z" style="fill:#f1a249"/><path d="M497.18 648.66c118.28-82.57 170.63-232.73 120.42-370.52-18.09-49.62-49.53-95.72-88.83-130.86-10.13-9.06-22.5-16.39-31.58-26.08V82.05l249.14-.07c288 21.63 392.57 394.81 145.97 558.31-117.24 77.73-257.62 40.1-390.37 48.95-1.4.3-4.73-.99-4.73-2.13v-38.46Z" style="fill:#c36ca9"/><path d="M1613.9 637.05h-59.18l86.43-548.15 199.33 438.37L2043.7 88.13l80.98 548.93h-59.18l-49.05-361.28-176.75 383.08-174.41-383.08-51.39 361.28ZM2518.33 117.71v54.51h-211.78v154.17h205.55v54.51h-205.55v201.66h211.78v54.51h-269.4V117.71h269.4ZM2637.26 117.71h57.62v464.84h143.27v54.51h-200.88V117.71ZM2920.35 117.71h93.43c51.9 0 91.61 10.9 119.13 32.7 31.15 23.88 46.72 59.7 46.72 107.45 0 44.65-17.13 78.64-51.39 102 33.21 8.31 58.01 25.05 74.36 50.22 16.35 25.18 24.53 52.05 24.53 80.59 0 23.36-5.06 44.91-15.18 64.63-10.12 19.73-22.71 35.56-37.76 47.49-29.08 22.85-70.6 34.26-124.58 34.26h-129.25V117.71Zm57.62 54.51v173.63h43.6c7.79 0 15.3-.39 22.58-1.17 7.26-.78 15.96-2.85 26.08-6.23 10.12-3.37 18.94-7.9 26.47-13.63 7.52-5.7 13.88-14.27 19.08-25.69 5.18-11.41 7.79-24.65 7.79-39.71 0-16.08-3.12-29.98-9.34-41.66-6.23-11.68-13.24-20.36-21.02-26.08-7.79-5.71-17.13-10.12-28.03-13.24-10.9-3.11-19.21-4.93-24.92-5.45-5.72-.51-11.42-.78-17.13-.78h-45.16Zm0 225.02v185.31h66.18c42.04 0 72.41-7.26 91.1-21.8 22.84-16.61 34.26-40.49 34.26-71.64 0-34.77-14.79-60.21-44.38-76.3-18.69-10.38-48.02-15.57-87.98-15.57h-59.18ZM3749.7 569.31c-52.17 51.39-116.15 77.09-191.93 77.09s-139.76-25.69-191.93-77.09c-52.17-51.39-78.25-115.23-78.25-191.54s26.21-140.8 78.64-191.93c52.42-51.12 116.27-76.69 191.54-76.69s139.1 25.57 191.54 76.69c52.42 51.13 78.64 115.11 78.64 191.93s-26.08 140.15-78.25 191.54Zm-42.44-343.37c-41.01-41.52-90.84-62.29-149.49-62.29s-108.5 20.77-149.5 62.29c-41.01 41.54-61.51 92.15-61.51 151.83s20.5 110.31 61.51 151.83c41 41.54 90.83 62.29 149.5 62.29s108.48-20.75 149.49-62.29c41-41.52 61.51-92.13 61.51-151.83s-20.51-110.29-61.51-151.83ZM3978.41 117.71v318.46c0 19.73.39 35.04 1.17 45.94.78 10.9 4.4 24.27 10.9 40.1 6.48 15.84 16.22 29.2 29.2 40.1 23.36 19.73 51.9 29.59 85.65 29.59s62.29-9.85 85.64-29.59c12.97-10.9 22.71-24.26 29.21-40.1 6.48-15.83 10.12-29.2 10.9-40.1.77-10.9 1.16-26.21 1.16-45.94V117.71h57.62v334.03c0 52.95-10.91 94.48-32.71 124.58-16.1 21.8-37.25 38.93-63.46 51.39-26.22 12.46-55.67 18.69-88.37 18.69s-62.17-6.23-88.38-18.69c-26.22-12.46-47.37-29.58-63.46-51.39-21.8-30.1-32.7-71.63-32.7-124.58V117.71h57.62ZM4406.38 117.71h83.31c56.06 0 98.11 9.61 126.14 28.81 37.89 25.44 56.84 63.85 56.84 115.23 0 39.98-12.07 73.19-36.21 99.67-24.13 26.47-55.67 41.01-94.6 43.6l165.07 232.03h-70.08l-158.06-227.36H4464v227.36h-57.61V117.71Zm57.61 54.51v186.09h36.6c35.82 0 63.85-8.3 84.09-24.92 20.24-16.61 30.37-39.97 30.37-70.08 0-35.29-13.76-60.73-41.27-76.3-17.65-9.85-42.57-14.79-74.75-14.79h-35.04ZM4850.51 637.05h-57.61V95.91l404.88 424.35V117.71h57.62v542.7l-404.89-424.35v400.99ZM5636.96 117.71v54.51h-211.79v154.17h205.56v54.51h-205.56v201.66h211.79v54.51h-269.4V117.71h269.4Z" class="cls-3"/></svg>